<?xml version="1.0" standalone="no"?>
<!DOCTYPE svg PUBLIC "-//W3C//DTD SVG 20010904//EN"
 "http://www.w3.org/TR/2001/REC-SVG-20010904/DTD/svg10.dtd">
<svg version="1.0" xmlns="http://www.w3.org/2000/svg"
 width="260.000000pt" height="260.000000pt" viewBox="0 0 260.000000 260.000000"
 preserveAspectRatio="xMidYMid meet">
<metadata>
Created by potrace 1.14, written by Peter Selinger 2001-2017
</metadata>
<g transform="translate(0.000000,260.000000) scale(0.100000,-0.100000)"
fill="#000000" stroke="none">
<path d="M928 2595 c-2 -2 -70 -6 -152 -10 -83 -3 -152 -8 -155 -9 -4 -2 -44
-7 -91 -10 -112 -9 -225 -33 -272 -57 -21 -11 -58 -39 -81 -64 -81 -82 -121
-197 -142 -397 -3 -29 -8 -70 -10 -90 -27 -233 -27 -1052 0 -1313 2 -22 7 -66
10 -97 28 -295 124 -443 315 -488 30 -8 64 -14 75 -15 38 -3 160 -16 190 -20
204 -26 1133 -26 1365 0 19 2 63 6 96 9 189 17 279 47 339 111 94 101 130 198
150 405 3 30 8 73 10 95 27 262 27 1009 -1 1315 -15 169 -25 233 -50 307 -39
117 -96 194 -179 240 -44 23 -153 48 -255 57 -36 4 -90 9 -121 12 -32 3 -90 8
-130 10 -84 6 -906 14 -911 9z"/>
</g>
</svg>
