<svg width="56" height="36" viewBox="0 0 56 36" fill="none" xmlns="http://www.w3.org/2000/svg">
<path d="M0 0H54C55.1046 0 56 0.895431 56 2V34C56 35.1046 55.1046 36 54 36H0V0Z" fill="#323232"/>
<path d="M36.87 26.17L31.28 20.58C32.35 19.35 33 17.75 33 16C33 12.13 29.87 9 26 9C22.13 9 19 12.13 19 16C19 19.87 22.13 23 26 23C27.75 23 29.35 22.35 30.58 21.29L36.17 26.88L36.87 26.17ZM26 22C22.69 22 20 19.31 20 16C20 12.69 22.69 10 26 10C29.31 10 32 12.69 32 16C32 19.31 29.31 22 26 22Z" fill="white"/>
</svg>
